<svg id="Layer_1" data-name="Layer 1" xmlns="http://www.w3.org/2000/svg" viewBox="0 0 1080 1080"><defs><style>.cls-1{fill:#fafafa;}.cls-2{opacity:0.5;}.cls-3{fill:#ffc107;}.cls-4,.cls-5{fill:none;stroke:#ffc107;stroke-miterlimit:10;}.cls-4{stroke-width:5px;}.cls-5{stroke-width:8px;}</style></defs><title>no data found</title><path class="cls-1" d="M958.179,653.228c-3.491,63.315-23.348,134.293-70.424,180.112-47.7,46.425-114.882,66.841-179.112,77.016-11.151,1.766-22.351,3.226-33.575,4.444-101.94,11.059-240.86,21.913-312.474-68.2a160.852,160.852,0,0,1-13.78-20.392c-31.341-54.953-37.383-120.181-67.145-175.856a192.55,192.55,0,0,0-21.753-32.69c-39.1-46.874-102.029-71.671-123.428-132.9C110.121,409.329,182.4,344.661,243.353,315.283c42.717-20.587,89.775-30.645,136.819-36.6,39.817-5.042,80.2-7.273,120.238-3.517,37.279,3.5,73.631,7.2,106.668,26.622,24.507,14.41,45.832,33.558,66.872,52.678,35.17,31.962,70.495,64.363,110.737,89.937C825,470.024,874.172,478.587,910.8,509.756,949.886,543.018,961.207,598.312,958.179,653.228Z"/><g class="cls-2"><path class="cls-3" d="M565.3,447.585h.282a2.348,2.348,0,1,0,0-4.7H565.3a2.348,2.348,0,0,0,0,4.7Z"/><path class="cls-3" d="M572.817,447.585h.282a2.348,2.348,0,1,0,0-4.7h-.282a2.348,2.348,0,1,0,0,4.7Z"/><path class="cls-3" d="M495.353,447.585h-.282a2.348,2.348,0,1,0,0,4.7h.282a2.348,2.348,0,0,0,0-4.7Z"/><path class="cls-3" d="M495.353,454.285h-.282a2.348,2.348,0,1,0,0,4.7h.282a2.348,2.348,0,0,0,0-4.7Z"/><path class="cls-3" d="M540.066,456.884a2.365,2.365,0,0,0,2.348-2.348V440.915a2.348,2.348,0,1,0-4.7,0v13.621A2.345,2.345,0,0,0,540.066,456.884Z"/><path class="cls-3" d="M532.77,447.491a2.365,2.365,0,0,0,2.348-2.348v-4.227a2.348,2.348,0,1,0-4.7,0v4.227A2.345,2.345,0,0,0,532.77,447.491Z"/><path class="cls-3" d="M615.62,419.843H602.814a2.365,2.365,0,0,0-2.348,2.348v43.523H595.3V454.755a3.915,3.915,0,0,0-3.914-3.914h-3.663V439.663A3.735,3.735,0,0,0,584,435.937H551.745V431.49a3.768,3.768,0,0,0-3.757-3.757H512.825a3.768,3.768,0,0,0-3.757,3.757v9.174H487.713a3.735,3.735,0,0,0-3.726,3.726v21.323h-4.415V422.191a2.365,2.365,0,0,0-2.348-2.348H464.448a2.365,2.365,0,0,0-2.348,2.348V577.809a2.365,2.365,0,0,0,2.348,2.348h12.806a2.365,2.365,0,0,0,2.348-2.348v-7.483H600.5v7.483a2.365,2.365,0,0,0,2.348,2.348h12.806A2.365,2.365,0,0,0,618,577.809V422.191a2.393,2.393,0,0,0-2.38-2.348ZM479.572,549.41H600.466v3.507H479.572Zm36.7-34.067h8.36a3.622,3.622,0,0,0,3.6-3.6v-4.7h3.977v12.587H521.06a3.735,3.735,0,0,0-3.726,3.726v5.667a2.348,2.348,0,0,0,4.7,0V524.36h25.049v4.352h-7.045a3.735,3.735,0,0,0-3.726,3.726v5.072a3.735,3.735,0,0,0,3.726,3.726h7.045v3.507H522.03V539.7a2.348,2.348,0,0,0-4.7,0v5.041H509.6V516.157a3.768,3.768,0,0,0-3.757-3.757h-5.1v-5.323h11.9v4.7a3.664,3.664,0,0,0,3.632,3.57Zm1.1-4.7v-3.6h6.168v3.6Zm74.553,34.067H570.845V534.537h21.073v10.176Zm-11.491-14.9h-4.634v-9.926a2.348,2.348,0,1,0-4.7,0v9.926h-1.033a3.915,3.915,0,0,0-3.914,3.914v10.959H551.807V523.358a3.735,3.735,0,0,0-3.726-3.726h-.939V511.4h33.284Zm-33.315,6.669h-6.074v-3.1h6.074Zm-50.568-7.421a2.365,2.365,0,0,0,2.348-2.348v-9.644h6.043v27.648H488.151V517.065h6.043v9.644A2.365,2.365,0,0,0,496.543,529.057Zm-16.971-50.443H600.466v8.047H479.572Zm103.453-37.95v10.176H568.747a3.915,3.915,0,0,0-3.914,3.914v10.959H551.745V440.665Zm-69.261-8.235h33.284v33.284H518.429V444.359a3.735,3.735,0,0,0-3.726-3.726h-.939Zm-.031,25.081h-6.074v-3.1h6.074Zm-25.049-12.149h25.049v4.352h-7.045a3.735,3.735,0,0,0-3.726,3.726v5.072a3.735,3.735,0,0,0,3.726,3.726h7.045v3.507H488.683Zm83.7,25.049a2.348,2.348,0,0,0,0-4.7H569.53V455.538H590.6v10.176h-7.577a2.348,2.348,0,0,0,0,4.7h17.441v3.507H479.572v-3.507Zm-97.5,105.05H466.8V424.539h8.11v71.923a2.348,2.348,0,0,0,4.7,0v-5.1H600.5v53.355h-3.883V533.754a3.915,3.915,0,0,0-3.914-3.914h-7.577V510.489a3.768,3.768,0,0,0-3.757-3.757H546.171a3.768,3.768,0,0,0-3.757,3.757v9.174H536.9v-13.4a3.915,3.915,0,0,0-3.914-3.914h-33a3.915,3.915,0,0,0-3.914,3.914v6.106h-8.861a3.768,3.768,0,0,0-3.757,3.757v28.587h-3.883V507.108a2.348,2.348,0,0,0-4.7,0Zm4.7-9.832v-8.047H600.466v8.047Zm133.7,9.832h-8.11V424.539h8.11Z"/><path class="cls-3" d="M528.418,531.28h.282a2.348,2.348,0,0,0,0-4.7h-.282a2.348,2.348,0,0,0,0,4.7Z"/><path class="cls-3" d="M528.418,537.981h.282a2.348,2.348,0,0,0,0-4.7h-.282a2.348,2.348,0,0,0,0,4.7Z"/><path class="cls-3" d="M566.117,526.458a2.365,2.365,0,0,0,2.348-2.348v-4.227a2.348,2.348,0,1,0-4.7,0v4.227A2.345,2.345,0,0,0,566.117,526.458Z"/></g><path class="cls-4" d="M439.157,359a23.98,23.98,0,0,0-23.98,23.98V681.02A23.98,23.98,0,0,0,439.157,705H635.843a23.98,23.98,0,0,0,23.98-23.98V400.348a12.136,12.136,0,0,0-3.555-8.581l-29.212-29.212A12.136,12.136,0,0,0,618.475,359Z"/><path class="cls-5" d="M542,664.779H510.69a6.274,6.274,0,0,1-5.434-9.412l15.655-27.115,15.655-27.115a6.274,6.274,0,0,1,10.868,0l15.655,27.115,15.655,27.115a6.274,6.274,0,0,1-5.434,9.412Z"/><path class="cls-3" d="M538.607,651.81a3.253,3.253,0,0,1,3.274-3.44,3.444,3.444,0,0,1,0,6.88A3.252,3.252,0,0,1,538.607,651.81Zm1.387-7.934-.777-26.632h5.327l-.777,26.632Z"/></svg>